<svg xmlns="http://www.w3.org/2000/svg"  viewBox="0 0 48 48" width="96px" height="96px"><path fill="#ffd54f" d="M24 18l4.7 8.7L38 28l-6.7 6.7L33 45l-9-5-9 5 1.7-10.3L10 28l9.3-1.3L24 18zM26 18h-4c-1.1 0-2-.9-2-2v-1c0-1.1.9-2 2-2h4c1.1 0 2 .9 2 2v1C28 17.1 27.1 18 26 18zM22 15v1h4v-1H22z"/><path fill="#ffb300" d="M24 27c1.3 0 2.5.4 3.4 1.1l1.2-1.4L24 18V27zM31.3 34.7L38 28l-8.6 2.5c.4.8.6 1.6.6 2.5 0 .4 0 .8-.1 1.1L31.3 34.7zM24 39v1l9 5-5.1-7.4C26.8 38.5 25.5 39 24 39zM18.1 34.1l-1.4.5L15 45l5.1-7.4C19.1 36.7 18.4 35.5 18.1 34.1zM20.6 28.1l-1.2-1.4L10 28l8.6 2.5C19 29.5 19.7 28.7 20.6 28.1zM28 33c0 2.2-1.8 4-4 4s-4-1.8-4-4c0-2.2 1.8-4 4-4S28 30.8 28 33z"/><path fill="#3f51b5" d="M13,3h22v5l-9,8h-4l-9-8V3z"/><path fill="#cfd8dc" d="M31,3H17v8.6l5,4.4h4l5-4.4V3z"/><path fill="#ff1744" d="M22,3h4v13h-4V3z"/></svg>