<svg xmlns="http://www.w3.org/2000/svg"  viewBox="0 0 32 32" width="1080px" height="1080px" baseProfile="basic"><linearGradient id="QrfoTOV8khcbM-hhCM51ma" x1="13.302" x2="18.657" y1="12.05" y2="17.405" gradientUnits="userSpaceOnUse"><stop offset="0" stop-color="#7f78a1" stop-opacity=".95"/><stop offset="1" stop-color="#7f78a1" stop-opacity=".5"/></linearGradient><path fill="url(#QrfoTOV8khcbM-hhCM51ma)" d="M15.991,19.521c0.735,0,1.145-0.41,1.162-1.18l0.205-7.009C17.376,10.564,16.778,10,15.974,10	c-0.803,0-1.385,0.547-1.368,1.316l0.205,7.026C14.829,19.111,15.239,19.521,15.991,19.521z"/><linearGradient id="QrfoTOV8khcbM-hhCM51mb" x1="14.919" x2="17.082" y1="21.409" y2="23.573" gradientUnits="userSpaceOnUse"><stop offset="0" stop-color="#7f78a1" stop-opacity=".95"/><stop offset="1" stop-color="#7f78a1" stop-opacity=".5"/></linearGradient><path fill="url(#QrfoTOV8khcbM-hhCM51mb)" d="M15.991,24c0.838,0,1.573-0.667,1.573-1.504c0-0.855-0.718-1.504-1.573-1.504	c-0.838,0-1.556,0.667-1.556,1.504C14.436,23.316,15.154,24,15.991,24z"/><linearGradient id="QrfoTOV8khcbM-hhCM51mc" x1="7.491" x2="24.509" y1="12.423" y2="29.442" gradientUnits="userSpaceOnUse"><stop offset="0" stop-color="#fb0" stop-opacity=".95"/><stop offset="1" stop-color="#fb0" stop-opacity=".5"/></linearGradient><path fill="url(#QrfoTOV8khcbM-hhCM51mc)" d="M18.102,6.136l9.943,17.222C28.98,24.977,27.812,27,25.943,27H6.057 c-1.869,0-3.037-2.023-2.102-3.642l9.943-17.222C14.832,4.518,17.168,4.518,18.102,6.136z M15.991,19.521 c0.735,0,1.145-0.41,1.162-1.18l0.205-7.009C17.376,10.564,16.778,10,15.974,10c-0.803,0-1.385,0.547-1.368,1.316l0.205,7.026 C14.829,19.111,15.239,19.521,15.991,19.521z M15.991,24c0.838,0,1.573-0.667,1.573-1.504c0-0.855-0.718-1.504-1.573-1.504 c-0.838,0-1.556,0.667-1.556,1.504C14.436,23.316,15.154,24,15.991,24z"/><linearGradient id="QrfoTOV8khcbM-hhCM51md" x1="7.491" x2="24.509" y1="12.423" y2="29.442" gradientUnits="userSpaceOnUse"><stop offset="0" stop-color="#fff" stop-opacity=".6"/><stop offset=".493" stop-color="#fff" stop-opacity="0"/><stop offset=".997" stop-color="#fff" stop-opacity=".3"/></linearGradient><path fill="url(#QrfoTOV8khcbM-hhCM51md)" d="M16,5.422c0.697,0,1.321,0.36,1.669,0.964l9.943,17.222c0.348,0.604,0.348,1.324,0,1.928	C27.264,26.14,26.64,26.5,25.943,26.5H6.057c-0.697,0-1.321-0.36-1.669-0.964c-0.348-0.604-0.348-1.324,0-1.928l9.943-17.222	C14.679,5.783,15.303,5.422,16,5.422 M16,4.922c-0.818,0-1.635,0.405-2.102,1.214L3.954,23.358C3.02,24.977,4.188,27,6.057,27	h19.886c1.869,0,3.037-2.023,2.102-3.642L18.102,6.136C17.635,5.327,16.818,4.922,16,4.922L16,4.922z"/></svg>