<svg xmlns="http://www.w3.org/2000/svg"  viewBox="0 0 48 48" width="96px" height="96px"><path fill="#ff3d00" d="M34 27L14 27 14 45 24 42 34 45z"/><path fill="#dd2c00" d="M34,31.332l-0.497,0.011c-1.828,0.038-3.484,0.995-4.433,2.561l-0.281,0.465 c-0.365,0.603-1.134,0.81-1.75,0.471l-0.478-0.264c-0.802-0.441-1.681-0.662-2.56-0.662c-0.88,0-1.76,0.221-2.563,0.663 l-0.473,0.261c-0.617,0.339-1.388,0.133-1.753-0.47l-0.281-0.465c-0.947-1.565-2.604-2.522-4.432-2.56L14,31.332v4.001l0.415,0.009 c0.451,0.009,0.86,0.245,1.094,0.632l0.282,0.465c1.479,2.443,4.596,3.28,7.105,1.902l0.475-0.262 c0.396-0.217,0.868-0.217,1.26-0.001l0.479,0.264c0.815,0.448,1.695,0.662,2.563,0.662c1.798,0,3.542-0.917,4.54-2.567l0.28-0.464 c0.234-0.387,0.644-0.623,1.096-0.632L34,35.332V31.332z"/><path fill="#ffa000" d="M40.325,21.596c-0.547-0.993-0.547-2.198,0-3.191l0.262-0.476c0.855-1.555,0.333-3.509-1.187-4.428 l-0.465-0.282c-0.97-0.588-1.572-1.63-1.596-2.763l-0.012-0.544c-0.036-1.775-1.466-3.205-3.241-3.241l-0.544-0.012 c-1.134-0.023-2.177-0.626-2.763-1.596l-0.282-0.465c-0.919-1.519-2.873-2.042-4.428-1.187l-0.476,0.262 c-0.993,0.547-2.198,0.547-3.191,0l-0.475-0.261C20.372,2.557,18.419,3.08,17.5,4.599l-0.282,0.465 c-0.588,0.97-1.63,1.572-2.763,1.596l-0.544,0.012c-1.775,0.036-3.205,1.466-3.241,3.241l-0.012,0.544 c-0.023,1.134-0.626,2.177-1.596,2.763l-0.465,0.282c-1.518,0.919-2.042,2.873-1.187,4.428l0.262,0.476 c0.547,0.993,0.547,2.198,0,3.191l-0.261,0.475c-0.855,1.555-0.333,3.509,1.187,4.428l0.465,0.282 c0.97,0.588,1.572,1.63,1.596,2.763l0.012,0.544c0.036,1.775,1.466,3.205,3.241,3.241l0.544,0.012 c1.134,0.023,2.177,0.626,2.763,1.596l0.282,0.465c0.919,1.518,2.873,2.042,4.428,1.187l0.476-0.262 c0.993-0.547,2.198-0.547,3.191,0l0.476,0.262c1.555,0.855,3.509,0.333,4.428-1.187l0.282-0.465c0.588-0.97,1.63-1.572,2.763-1.596 l0.544-0.012c1.775-0.036,3.205-1.466,3.241-3.241l0.012-0.544c0.023-1.134,0.626-2.177,1.596-2.763l0.465-0.282 c1.518-0.919,2.042-2.873,1.187-4.428L40.325,21.596z"/><path fill="#ffb300" d="M23.999 8.923A11.077 11.077 0 1 0 23.999 31.076999999999998A11.077 11.077 0 1 0 23.999 8.923Z"/><path fill="#ffca28" d="M24,32.001c-6.617,0-12-5.383-12-12S17.382,8,24,8s12,5.383,12,12S30.617,32.001,24,32.001z M24,10 c-5.514,0-10,4.486-10,10s4.486,10,10,10s10-4.486,10-10S29.514,10,24,10z"/></svg>