<svg xmlns="http://www.w3.org/2000/svg"  viewBox="0 0 24 24" width="1080px" height="1080px" baseProfile="basic"><linearGradient id="p0bJCvEs0Ej4i0IJHuME8a" x1="12.002" x2="12.002" y1="2.999" y2="21.001" gradientUnits="userSpaceOnUse"><stop offset="0" stop-color="#4df0ff"/><stop offset="1" stop-color="#00b5ff"/></linearGradient><path fill="url(#p0bJCvEs0Ej4i0IJHuME8a)" d="M19.483,15.391c-1.051-0.588-2.235-0.478-3.125,0.111c-0.297,0.196-0.674,0.222-0.993,0.063	l-5.341-2.67c-0.737-0.369-0.737-1.42,0-1.789l5.341-2.67c0.319-0.159,0.695-0.133,0.993,0.063c0.89,0.588,2.074,0.699,3.125,0.111	c1.08-0.605,1.692-1.884,1.477-3.104c-0.334-1.899-2.261-2.953-3.987-2.325c-1.162,0.423-1.9,1.49-1.964,2.652	c-0.019,0.35-0.23,0.66-0.544,0.816L8.641,9.562C8.33,9.717,7.957,9.706,7.669,9.513C6.358,8.63,4.506,8.891,3.521,10.307	c-0.695,0.999-0.695,2.388,0,3.387c0.985,1.415,2.836,1.677,4.148,0.794c0.288-0.194,0.659-0.205,0.97-0.05	c1.304,0.652,4.526,2.263,5.829,2.915c0.313,0.157,0.523,0.466,0.542,0.815c0.064,1.161,0.802,2.228,1.964,2.652	c1.726,0.628,3.653-0.426,3.987-2.325C21.175,17.275,20.564,15.996,19.483,15.391z"/></svg>