<svg xmlns="http://www.w3.org/2000/svg"  viewBox="0 0 32 32" width="1080px" height="1080px" baseProfile="basic"><linearGradient id="PyQCGAaQwMrNsyn8rAdFaa" x1="10.79" x2="13.944" y1="25.981" y2="29.135" gradientUnits="userSpaceOnUse"><stop offset="0" stop-color="#00cf30" stop-opacity=".95"/><stop offset="1" stop-color="#00cf30" stop-opacity=".5"/></linearGradient><path fill="url(#PyQCGAaQwMrNsyn8rAdFaa)" d="M13.065,28.639c-0.081,0-0.163-0.01-0.245-0.03c-0.691-0.174-1.375-0.408-2.032-0.695	c-0.506-0.221-0.737-0.811-0.516-1.316c0.222-0.506,0.812-0.739,1.317-0.516c0.556,0.243,1.135,0.44,1.72,0.588	c0.536,0.135,0.86,0.679,0.726,1.214C13.92,28.336,13.513,28.639,13.065,28.639z"/><linearGradient id="PyQCGAaQwMrNsyn8rAdFab" x1="10.79" x2="13.463" y1="25.981" y2="28.654" gradientUnits="userSpaceOnUse"><stop offset="0" stop-color="#fff" stop-opacity=".6"/><stop offset=".493" stop-color="#fff" stop-opacity="0"/><stop offset=".997" stop-color="#fff" stop-opacity=".3"/></linearGradient><path fill="url(#PyQCGAaQwMrNsyn8rAdFab)" d="M11.189,26.496c0.068,0,0.135,0.014,0.2,0.043c0.578,0.253,1.183,0.46,1.798,0.615	c0.129,0.033,0.238,0.114,0.307,0.228c0.069,0.115,0.088,0.249,0.056,0.378c-0.056,0.223-0.255,0.378-0.484,0.378	c-0.041,0-0.083-0.005-0.123-0.015c-0.663-0.167-1.32-0.392-1.954-0.669c-0.122-0.053-0.216-0.151-0.265-0.275	c-0.049-0.124-0.046-0.26,0.007-0.382C10.81,26.614,10.99,26.496,11.189,26.496 M11.189,25.996c-0.385,0-0.752,0.225-0.917,0.601	c-0.221,0.506,0.01,1.096,0.516,1.316c0.657,0.287,1.341,0.521,2.032,0.695c0.082,0.021,0.164,0.03,0.245,0.03	c0.447,0,0.854-0.303,0.969-0.756c0.135-0.535-0.19-1.079-0.726-1.214c-0.585-0.147-1.164-0.345-1.72-0.588	C11.458,26.023,11.322,25.996,11.189,25.996L11.189,25.996z"/><linearGradient id="PyQCGAaQwMrNsyn8rAdFac" x1="5.796" x2="9.117" y1="22.705" y2="26.026" gradientUnits="userSpaceOnUse"><stop offset="0" stop-color="#00cf30" stop-opacity=".95"/><stop offset="1" stop-color="#00cf30" stop-opacity=".5"/></linearGradient><path fill="url(#PyQCGAaQwMrNsyn8rAdFac)" d="M7.878,25.837c-0.242,0-0.484-0.087-0.676-0.264c-0.526-0.483-1.016-1.015-1.456-1.578	c-0.339-0.436-0.262-1.063,0.173-1.403c0.435-0.34,1.064-0.264,1.404,0.173c0.372,0.478,0.787,0.927,1.232,1.336	c0.407,0.374,0.433,1.006,0.06,1.413C8.418,25.729,8.149,25.837,7.878,25.837z"/><linearGradient id="PyQCGAaQwMrNsyn8rAdFad" x1="5.796" x2="8.611" y1="22.705" y2="25.52" gradientUnits="userSpaceOnUse"><stop offset="0" stop-color="#fff" stop-opacity=".6"/><stop offset=".493" stop-color="#fff" stop-opacity="0"/><stop offset=".997" stop-color="#fff" stop-opacity=".3"/></linearGradient><path fill="url(#PyQCGAaQwMrNsyn8rAdFad)" d="M6.535,22.88L6.535,22.88c0.155,0,0.299,0.07,0.394,0.192	c0.389,0.499,0.822,0.969,1.288,1.397c0.203,0.187,0.216,0.504,0.03,0.707c-0.096,0.104-0.226,0.161-0.369,0.161	c-0.125,0-0.245-0.047-0.338-0.132c-0.506-0.465-0.977-0.976-1.4-1.517c-0.169-0.218-0.131-0.532,0.087-0.702	C6.34,22.898,6.457,22.88,6.535,22.88 M6.535,22.38c-0.215,0-0.433,0.069-0.615,0.212c-0.436,0.34-0.513,0.968-0.173,1.403	c0.44,0.563,0.93,1.095,1.456,1.578c0.192,0.177,0.435,0.264,0.676,0.264c0.271,0,0.54-0.108,0.737-0.323	c0.374-0.407,0.347-1.039-0.06-1.413c-0.446-0.409-0.86-0.858-1.232-1.336C7.126,22.512,6.832,22.38,6.535,22.38L6.535,22.38z"/><linearGradient id="PyQCGAaQwMrNsyn8rAdFae" x1="3.098" x2="6.187" y1="17.636" y2="20.725" gradientUnits="userSpaceOnUse"><stop offset="0" stop-color="#00cf30" stop-opacity=".95"/><stop offset="1" stop-color="#00cf30" stop-opacity=".5"/></linearGradient><path fill="url(#PyQCGAaQwMrNsyn8rAdFae)" d="M4.649,20.906c-0.415,0-0.803-0.26-0.946-0.675c-0.232-0.675-0.409-1.375-0.527-2.082	c-0.091-0.544,0.277-1.06,0.822-1.15c0.55-0.1,1.06,0.278,1.151,0.822c0.1,0.598,0.25,1.189,0.446,1.76	c0.179,0.522-0.098,1.091-0.621,1.271C4.867,20.889,4.757,20.906,4.649,20.906z"/><linearGradient id="PyQCGAaQwMrNsyn8rAdFaf" x1="3.098" x2="5.716" y1="17.636" y2="20.254" gradientUnits="userSpaceOnUse"><stop offset="0" stop-color="#fff" stop-opacity=".6"/><stop offset=".493" stop-color="#fff" stop-opacity="0"/><stop offset=".997" stop-color="#fff" stop-opacity=".3"/></linearGradient><path fill="url(#PyQCGAaQwMrNsyn8rAdFaf)" d="M4.175,17.483c0.238,0,0.44,0.177,0.481,0.42c0.104,0.625,0.261,1.244,0.466,1.84	c0.089,0.261-0.05,0.546-0.31,0.635c-0.053,0.018-0.108,0.027-0.163,0.027c-0.214,0-0.404-0.136-0.473-0.337	c-0.223-0.649-0.393-1.322-0.507-2.002c-0.022-0.131,0.009-0.263,0.086-0.372c0.078-0.109,0.193-0.181,0.331-0.204	C4.117,17.486,4.146,17.483,4.175,17.483 M4.175,16.983c-0.058,0-0.117,0.005-0.177,0.016c-0.544,0.091-0.913,0.606-0.822,1.15	c0.118,0.707,0.295,1.407,0.527,2.082c0.143,0.415,0.531,0.675,0.946,0.675c0.108,0,0.217-0.018,0.325-0.055	c0.522-0.18,0.8-0.748,0.621-1.271c-0.196-0.57-0.346-1.162-0.446-1.76C5.068,17.336,4.654,16.983,4.175,16.983L4.175,16.983z"/><linearGradient id="PyQCGAaQwMrNsyn8rAdFag" x1="3.335" x2="5.853" y1="12.005" y2="14.523" gradientUnits="userSpaceOnUse"><stop offset="0" stop-color="#00cf30" stop-opacity=".95"/><stop offset="1" stop-color="#00cf30" stop-opacity=".5"/></linearGradient><path fill="url(#PyQCGAaQwMrNsyn8rAdFag)" d="M4.161,15.033c-0.054,0-0.108-0.004-0.164-0.014c-0.545-0.09-0.914-0.604-0.824-1.149	c0.117-0.707,0.293-1.407,0.524-2.083c0.179-0.522,0.746-0.799,1.27-0.622c0.522,0.179,0.801,0.748,0.623,1.271	c-0.195,0.57-0.344,1.162-0.443,1.761C5.066,14.686,4.642,15.033,4.161,15.033z"/><linearGradient id="PyQCGAaQwMrNsyn8rAdFah" x1="3.335" x2="5.469" y1="12.005" y2="14.139" gradientUnits="userSpaceOnUse"><stop offset="0" stop-color="#fff" stop-opacity=".6"/><stop offset=".493" stop-color="#fff" stop-opacity="0"/><stop offset=".997" stop-color="#fff" stop-opacity=".3"/></linearGradient><path fill="url(#PyQCGAaQwMrNsyn8rAdFah)" d="M4.644,11.612c0.055,0,0.11,0.009,0.161,0.026c0.126,0.043,0.228,0.133,0.287,0.253	c0.059,0.12,0.067,0.256,0.024,0.382c-0.204,0.597-0.36,1.216-0.463,1.841c-0.04,0.243-0.247,0.419-0.493,0.419	c-0.025,0-0.051-0.001-0.082-0.007c-0.272-0.045-0.457-0.303-0.412-0.575c0.112-0.679,0.281-1.352,0.504-2.003	C4.239,11.747,4.43,11.612,4.644,11.612 M4.644,11.112c-0.416,0-0.805,0.26-0.947,0.675c-0.231,0.676-0.407,1.376-0.524,2.083	c-0.09,0.545,0.279,1.06,0.824,1.149c0.055,0.01,0.11,0.014,0.164,0.014c0.481,0,0.905-0.348,0.986-0.837	c0.099-0.599,0.248-1.19,0.443-1.761c0.179-0.522-0.1-1.092-0.623-1.271C4.86,11.129,4.751,11.112,4.644,11.112L4.644,11.112z"/><linearGradient id="PyQCGAaQwMrNsyn8rAdFai" x1="6.452" x2="8.198" y1="7.162" y2="8.908" gradientUnits="userSpaceOnUse"><stop offset="0" stop-color="#00cf30" stop-opacity=".95"/><stop offset="1" stop-color="#00cf30" stop-opacity=".5"/></linearGradient><path fill="url(#PyQCGAaQwMrNsyn8rAdFai)" d="M6.524,9.635c-0.215,0-0.431-0.068-0.614-0.211C5.474,9.085,5.396,8.456,5.735,8.021	c0.438-0.562,0.927-1.095,1.453-1.58c0.407-0.375,1.04-0.348,1.413,0.056c0.375,0.406,0.35,1.038-0.056,1.413	c-0.446,0.412-0.86,0.863-1.232,1.34C7.116,9.502,6.822,9.635,6.524,9.635z"/><linearGradient id="PyQCGAaQwMrNsyn8rAdFaj" x1="6.452" x2="7.932" y1="7.162" y2="8.641" gradientUnits="userSpaceOnUse"><stop offset="0" stop-color="#fff" stop-opacity=".6"/><stop offset=".493" stop-color="#fff" stop-opacity="0"/><stop offset=".997" stop-color="#fff" stop-opacity=".3"/></linearGradient><path fill="url(#PyQCGAaQwMrNsyn8rAdFaj)" d="M7.867,6.676c0.142,0,0.272,0.057,0.367,0.16c0.187,0.203,0.174,0.52-0.027,0.707	C7.743,7.97,7.31,8.441,6.919,8.942c-0.096,0.123-0.24,0.193-0.395,0.193c-0.078,0-0.195-0.018-0.307-0.106	c-0.105-0.082-0.172-0.2-0.189-0.332C6.012,8.564,6.048,8.433,6.13,8.328c0.423-0.543,0.893-1.054,1.397-1.519	C7.62,6.723,7.74,6.676,7.867,6.676 M7.866,6.176c-0.242,0-0.486,0.087-0.678,0.265c-0.526,0.485-1.015,1.018-1.453,1.58	C5.396,8.456,5.474,9.085,5.91,9.424c0.183,0.143,0.399,0.211,0.614,0.211c0.298,0,0.592-0.133,0.79-0.386	c0.372-0.477,0.786-0.928,1.232-1.34c0.405-0.375,0.431-1.007,0.056-1.413C8.405,6.284,8.136,6.176,7.866,6.176L7.866,6.176z"/><linearGradient id="PyQCGAaQwMrNsyn8rAdFak" x1="11.094" x2="13.489" y1="3.673" y2="6.068" gradientUnits="userSpaceOnUse"><stop offset="0" stop-color="#00cf30" stop-opacity=".95"/><stop offset="1" stop-color="#00cf30" stop-opacity=".5"/></linearGradient><path fill="url(#PyQCGAaQwMrNsyn8rAdFak)" d="M11.172,6.01c-0.384,0-0.75-0.223-0.916-0.597c-0.223-0.506,0.006-1.096,0.512-1.318	c0.658-0.29,1.342-0.525,2.034-0.699c0.535-0.133,1.079,0.19,1.214,0.726s-0.19,1.079-0.726,1.214	c-0.584,0.146-1.161,0.346-1.716,0.59C11.443,5.982,11.307,6.01,11.172,6.01z"/><linearGradient id="PyQCGAaQwMrNsyn8rAdFal" x1="11.094" x2="13.123" y1="3.673" y2="5.702" gradientUnits="userSpaceOnUse"><stop offset="0" stop-color="#fff" stop-opacity=".6"/><stop offset=".493" stop-color="#fff" stop-opacity="0"/><stop offset=".997" stop-color="#fff" stop-opacity=".3"/></linearGradient><path fill="url(#PyQCGAaQwMrNsyn8rAdFal)" d="M13.045,3.866c0.23,0,0.43,0.155,0.486,0.378c0.033,0.129,0.013,0.264-0.056,0.379	c-0.069,0.115-0.178,0.196-0.307,0.228c-0.607,0.152-1.211,0.36-1.795,0.617c-0.065,0.028-0.133,0.043-0.202,0.043	c-0.198,0-0.378-0.117-0.458-0.298c-0.111-0.253,0.004-0.548,0.256-0.659c0.633-0.279,1.29-0.505,1.953-0.671	C12.963,3.871,13.004,3.866,13.045,3.866 M13.045,3.366c-0.08,0-0.162,0.01-0.243,0.03c-0.692,0.174-1.376,0.409-2.034,0.699	c-0.505,0.223-0.734,0.812-0.512,1.318c0.165,0.374,0.531,0.597,0.916,0.597c0.135,0,0.271-0.027,0.403-0.085	c0.555-0.244,1.132-0.443,1.716-0.59c0.536-0.135,0.86-0.679,0.726-1.214C13.902,3.667,13.493,3.366,13.045,3.366L13.045,3.366z"/><linearGradient id="PyQCGAaQwMrNsyn8rAdFam" x1="-12.156" x2="118.949" y1="-15.178" y2="115.927" gradientUnits="userSpaceOnUse"><stop offset="0" stop-color="#00cf30" stop-opacity=".95"/><stop offset="1" stop-color="#00cf30" stop-opacity=".5"/></linearGradient><path fill="url(#PyQCGAaQwMrNsyn8rAdFam)" d="M17.007,28.956c-0.514,0-0.951-0.394-0.996-0.916c-0.046-0.55,0.362-1.034,0.912-1.08	c0.307-0.026,0.611-0.065,0.911-0.116C23.146,25.955,27,21.395,27,16s-3.854-9.955-9.165-10.844c-0.3-0.051-0.604-0.09-0.911-0.116	c-0.55-0.046-0.958-0.53-0.912-1.08c0.047-0.551,0.526-0.967,1.081-0.912c0.362,0.03,0.72,0.077,1.073,0.136	C24.443,4.233,29,9.624,29,16s-4.557,11.767-10.835,12.816c-0.353,0.059-0.71,0.105-1.072,0.136	C17.064,28.955,17.036,28.956,17.007,28.956z"/><linearGradient id="PyQCGAaQwMrNsyn8rAdFan" x1="11.328" x2="26.714" y1="8.306" y2="23.692" gradientUnits="userSpaceOnUse"><stop offset="0" stop-color="#fff" stop-opacity=".6"/><stop offset=".493" stop-color="#fff" stop-opacity="0"/><stop offset=".997" stop-color="#fff" stop-opacity=".3"/></linearGradient><path fill="url(#PyQCGAaQwMrNsyn8rAdFan)" d="M16.995,3.043l0.056,0.503c0.332,0.028,0.67,0.071,1.032,0.131	C24.119,4.686,28.5,9.869,28.5,16s-4.381,11.314-10.417,12.323c-0.357,0.059-0.704,0.103-1.076,0.133	c-0.257,0-0.476-0.201-0.497-0.458c-0.011-0.133,0.03-0.262,0.116-0.365c0.086-0.102,0.207-0.164,0.34-0.175	c0.317-0.027,0.637-0.068,0.95-0.121C23.47,26.408,27.5,21.64,27.5,16c0-5.64-4.03-10.408-9.582-11.337	c-0.315-0.053-0.635-0.094-0.953-0.121c-0.133-0.011-0.253-0.073-0.339-0.175c-0.086-0.102-0.127-0.232-0.116-0.364	c0.022-0.262,0.231-0.459,0.485-0.459L16.995,3.043 M16.995,3.043c-0.513,0-0.939,0.399-0.983,0.917	c-0.046,0.55,0.362,1.034,0.912,1.08c0.307,0.026,0.611,0.065,0.911,0.116C23.146,6.045,27,10.605,27,16s-3.854,9.955-9.166,10.844	c-0.299,0.051-0.604,0.09-0.911,0.116c-0.55,0.046-0.958,0.53-0.912,1.08c0.044,0.522,0.481,0.916,0.996,0.916	c0.028,0,0.057-0.001,0.085-0.004c0.362-0.03,0.72-0.077,1.072-0.136C24.443,27.767,29,22.376,29,16S24.443,4.233,18.166,3.184	c-0.353-0.059-0.711-0.105-1.073-0.136C17.06,3.045,17.027,3.043,16.995,3.043L16.995,3.043z"/><linearGradient id="PyQCGAaQwMrNsyn8rAdFao" x1="13.357" x2="19.232" y1="12.34" y2="18.216" gradientUnits="userSpaceOnUse"><stop offset="0" stop-color="#00cf30" stop-opacity=".95"/><stop offset="1" stop-color="#00cf30" stop-opacity=".5"/></linearGradient><path fill="url(#PyQCGAaQwMrNsyn8rAdFao)" d="M14.034,23c-0.297,0-0.581-0.133-0.771-0.363l-4.033-4.89	c-0.352-0.427-0.291-1.057,0.135-1.408c0.425-0.35,1.057-0.29,1.408,0.135l3.155,3.825l6.228-9.834	c0.295-0.467,0.912-0.607,1.38-0.31c0.466,0.295,0.605,0.913,0.31,1.38l-6.966,11c-0.171,0.271-0.462,0.442-0.782,0.463	C14.075,22.999,14.054,23,14.034,23z"/><linearGradient id="PyQCGAaQwMrNsyn8rAdFap" x1="13.357" x2="19.232" y1="12.34" y2="18.216" gradientUnits="userSpaceOnUse"><stop offset="0" stop-color="#fff" stop-opacity=".6"/><stop offset=".493" stop-color="#fff" stop-opacity="0"/><stop offset=".997" stop-color="#fff" stop-opacity=".3"/></linearGradient><path fill="url(#PyQCGAaQwMrNsyn8rAdFap)" d="M21,10.499L21,10.499c0.094,0,0.186,0.027,0.267,0.079c0.113,0.071,0.191,0.182,0.22,0.312	c0.029,0.13,0.006,0.265-0.065,0.377l-6.966,11c-0.085,0.135-0.232,0.221-0.422,0.232c-0.15,0-0.291-0.066-0.386-0.181l-4.033-4.889	C9.439,17.216,9.47,16.9,9.682,16.725c0.114-0.094,0.236-0.114,0.318-0.114c0.151,0,0.292,0.066,0.386,0.18l3.155,3.825l0.439,0.532	l0.369-0.583l6.228-9.834C20.67,10.586,20.828,10.499,21,10.499 M21,9.999c-0.331,0-0.655,0.165-0.845,0.466l-6.228,9.834	l-3.155-3.825c-0.198-0.239-0.484-0.362-0.772-0.362c-0.224,0-0.45,0.075-0.636,0.228c-0.426,0.352-0.487,0.981-0.135,1.408	l4.033,4.89c0.19,0.23,0.474,0.363,0.771,0.363c0.021,0,0.042-0.001,0.062-0.002c0.32-0.021,0.611-0.192,0.782-0.463l6.966-11	c0.295-0.467,0.157-1.085-0.31-1.38C21.368,10.049,21.183,9.999,21,9.999L21,9.999z"/></svg>